<svg xmlns="http://www.w3.org/2000/svg" viewBox="0 0 600 600" style="background: transparent;">
  <!-- Tree on left -->
  <g fill="#2d5947">
    <!-- Tree trunk -->
    <rect x="170" y="370" width="12" height="50"/>
    <!-- Tree layers (evergreen style) -->
    <polygon points="176,370 155,345 197,345"/>
    <polygon points="176,355 160,335 192,335"/>
    <polygon points="176,340 165,325 187,325"/>
    <polygon points="176,325 170,315 182,315"/>
  </g>
  
  <!-- House structure -->
  <g fill="#2d5947" stroke="#2d5947" stroke-width="2">
    <!-- Main house body -->
    <rect x="240" y="310" width="160" height="110" fill="#ffffff" stroke="#2d5947" stroke-width="3"/>
    
    <!-- Main roof -->
    <polygon points="225,310 320,240 415,310" fill="#2d5947"/>
    
    <!-- Front porch/entrance area -->
    <rect x="280" y="310" width="80" height="110" fill="#ffffff" stroke="#2d5947" stroke-width="2"/>
    
    <!-- Porch roof -->
    <polygon points="270,310 320,280 370,310" fill="#2d5947"/>
    
    <!-- Porch pillars -->
    <rect x="285" y="280" width="6" height="30" fill="#2d5947"/>
    <rect x="329" y="280" width="6" height="30" fill="#2d5947"/>
    
    <!-- Windows -->
    <!-- Left window -->
    <rect x="255" y="330" width="20" height="25" fill="#ffffff" stroke="#2d5947" stroke-width="1.5"/>
    <line x1="265" y1="330" x2="265" y2="355" stroke="#2d5947" stroke-width="1"/>
    <line x1="255" y1="342.5" x2="275" y2="342.5" stroke="#2d5947" stroke-width="1"/>
    
    <!-- Right window -->
    <rect x="365" y="330" width="20" height="25" fill="#ffffff" stroke="#2d5947" stroke-width="1.5"/>
    <line x1="375" y1="330" x2="375" y2="355" stroke="#2d5947" stroke-width="1"/>
    <line x1="365" y1="342.5" x2="385" y2="342.5" stroke="#2d5947" stroke-width="1"/>
    
    <!-- Porch windows -->
    <rect x="295" y="330" width="15" height="20" fill="#ffffff" stroke="#2d5947" stroke-width="1.5"/>
    <rect x="325" y="330" width="15" height="20" fill="#ffffff" stroke="#2d5947" stroke-width="1.5"/>
    
    <!-- Upper windows -->
    <rect x="270" y="270" width="15" height="20" fill="#ffffff" stroke="#2d5947" stroke-width="1.5"/>
    <rect x="355" y="270" width="15" height="20" fill="#ffffff" stroke="#2d5947" stroke-width="1.5"/>
    
    <!-- Door -->
    <rect x="312" y="370" width="26" height="50" fill="#2d5947"/>
    <circle cx="330" cy="395" r="1.5" fill="#ffffff"/>
    
    <!-- Chimney -->
    <rect x="300" y="245" width="15" height="35" fill="#2d5947"/>
  </g>
  
  <!-- Landscaping/bushes on right -->
  <g fill="#2d5947">
    <circle cx="450" cy="380" r="25"/>
    <circle cx="465" cy="370" r="18"/>
    <circle cx="435" cy="395" r="15"/>
  </g>
  
  <!-- Ground landscaping -->
  <ellipse cx="320" cy="440" rx="130" ry="18" fill="#2d5947" opacity="0.2"/>
  
  <!-- Company name -->
  <text x="320" y="490" text-anchor="middle" font-family="serif" font-size="32" font-weight="bold" fill="#2d5947">WILLOWBROOK</text>
  <text x="320" y="515" text-anchor="middle" font-family="sans-serif" font-size="14" font-weight="normal" fill="#2d5947" letter-spacing="2px">REAL ESTATE GROUP</text>
</svg>