<svg xmlns="http://www.w3.org/2000/svg" viewBox="0 0 600 600" style="background: transparent;">
  <!-- Tree on left -->
  <g fill="#2d5f41">
    <!-- Tree trunk -->
    <rect x="180" y="380" width="15" height="60"/>
    <!-- Tree layers (evergreen) -->
    <polygon points="187.5,380 165,350 210,350"/>
    <polygon points="187.5,365 170,340 205,340"/>
    <polygon points="187.5,350 175,330 200,330"/>
    <polygon points="187.5,335 180,320 195,320"/>
  </g>
  
  <!-- House structure -->
  <g fill="#2d5f41" stroke="#2d5f41" stroke-width="2">
    <!-- Main house body -->
    <rect x="250" y="320" width="180" height="120" fill="white" stroke="#2d5f41" stroke-width="3"/>
    
    <!-- Roof -->
    <polygon points="240,320 340,240 440,320" fill="#2d5f41"/>
    
    <!-- Chimney -->
    <rect x="310" y="250" width="25" height="50" fill="#2d5f41"/>
    
    <!-- Front porch roof -->
    <polygon points="270,320 300,300 350,300 380,320" fill="#2d5f41"/>
    
    <!-- Porch columns -->
    <rect x="290" y="300" width="8" height="20" fill="#2d5f41"/>
    <rect x="350" y="300" width="8" height="20" fill="#2d5f41"/>
    
    <!-- Windows -->
    <rect x="270" y="340" width="25" height="30" fill="white" stroke="#2d5f41" stroke-width="2"/>
    <line x1="282.5" y1="340" x2="282.5" y2="370" stroke="#2d5f41" stroke-width="1"/>
    <line x1="270" y1="355" x2="295" y2="355" stroke="#2d5f41" stroke-width="1"/>
    
    <rect x="385" y="340" width="25" height="30" fill="white" stroke="#2d5f41" stroke-width="2"/>
    <line x1="397.5" y1="340" x2="397.5" y2="370" stroke="#2d5f41" stroke-width="1"/>
    <line x1="385" y1="355" x2="410" y2="355" stroke="#2d5f41" stroke-width="1"/>
    
    <!-- Upper windows -->
    <rect x="285" y="280" width="20" height="25" fill="white" stroke="#2d5f41" stroke-width="2"/>
    <rect x="375" y="280" width="20" height="25" fill="white" stroke="#2d5f41" stroke-width="2"/>
    
    <!-- Door -->
    <rect x="315" y="380" width="40" height="60" fill="#2d5f41"/>
    <circle cx="345" cy="410" r="2" fill="white"/>
    
    <!-- Front porch -->
    <rect x="280" y="320" width="100" height="60" fill="none" stroke="#2d5f41" stroke-width="2"/>
  </g>
  
  <!-- Bushes/landscaping on right -->
  <g fill="#2d5f41">
    <circle cx="470" cy="400" r="30"/>
    <circle cx="485" cy="385" r="22"/>
    <circle cx="455" cy="415" r="18"/>
  </g>
  
  <!-- Ground landscaping -->
  <ellipse cx="340" cy="460" rx="140" ry="20" fill="#2d5f41" opacity="0.3"/>
  
  <!-- Company name -->
  <text x="300" y="520" text-anchor="middle" font-family="serif" font-size="36" font-weight="bold" fill="#2d5f41">WILLOWBROOK</text>
  <text x="300" y="550" text-anchor="middle" font-family="sans-serif" font-size="16" font-weight="normal" fill="#2d5f41" letter-spacing="3px">REAL ESTATE GROUP</text>
</svg>